<svg width="34" height="33" viewBox="0 0 34 33" fill="none" xmlns="http://www.w3.org/2000/svg">
<path fill-rule="evenodd" clip-rule="evenodd" d="M16.7381 0.248688C7.67448 0.248688 0.333374 7.58891 0.333374 16.6514C0.333374 23.9096 5.02922 30.0401 11.5501 32.2135C12.3703 32.357 12.6779 31.865 12.6779 31.4344C12.6779 31.0448 12.6574 29.7531 12.6574 28.3794C8.53572 29.138 7.46942 27.3747 7.14133 26.452C6.95677 25.9805 6.15704 24.5247 5.45984 24.1352C4.88568 23.8276 4.06544 23.069 5.43934 23.0485C6.73121 23.028 7.65397 24.2377 7.96156 24.7298C9.43798 27.2107 11.7962 26.5136 12.7394 26.083C12.883 25.0168 13.3136 24.2992 13.7852 23.8891C10.1352 23.4791 6.32109 22.0643 6.32109 15.7903C6.32109 14.0065 6.95677 12.5302 8.00257 11.382C7.83853 10.972 7.26436 9.29069 8.16662 7.03532C8.16662 7.03532 9.54051 6.60475 12.6779 8.7166C13.9903 8.34754 15.3847 8.163 16.7791 8.163C18.1735 8.163 19.5679 8.34754 20.8803 8.7166C24.0177 6.58424 25.3916 7.03532 25.3916 7.03532C26.2938 9.29069 25.7197 10.972 25.5556 11.382C26.6014 12.5302 27.2371 13.986 27.2371 15.7903C27.2371 22.0848 23.4025 23.4791 19.7524 23.8891C20.3471 24.4017 20.8598 25.3859 20.8598 26.9236C20.8598 29.1175 20.8393 30.8808 20.8393 31.4344C20.8393 31.865 21.1468 32.3775 21.9671 32.2135C28.4469 30.0401 33.1428 23.8891 33.1428 16.6514C33.1428 7.58891 25.8017 0.248688 16.7381 0.248688Z" fill="white" fill-opacity="0.5"/>
</svg>
