<svg width="37" height="40" viewBox="0 0 37 40" fill="none" xmlns="http://www.w3.org/2000/svg">
<path d="M0.834344 21.3397L5.01425 17.8462C5.98291 17.0369 7.40667 17.1879 8.19403 18.1832C8.98176 19.1789 8.83486 20.6425 7.8662 21.4519L5.84341 23.1425L20.5299 35.863C21.4985 36.6723 21.6454 38.1359 20.8577 39.1313C20.4111 39.6965 19.7595 39.9893 19.1028 39.9893C18.6018 39.9893 18.0971 39.8189 17.6783 39.4686L0.834344 24.9453C0.306723 24.5041 0 23.8419 0 23.1425C0 22.443 0.306723 21.7812 0.834344 21.3397Z" fill="white"/>
<path d="M19.3954 -0.00581662C20.5953 0.00407225 21.5606 1.01198 21.551 2.24581L21.3641 37.7731C21.3545 39.0069 20.3737 39.9988 19.1737 39.989C18.8696 39.9867 18.581 39.9201 18.319 39.8022C17.5476 39.4542 17.0107 38.6589 17.0178 37.7373L17.205 2.21043C17.2146 0.976605 18.1951 -0.0157055 19.3954 -0.00581662Z" fill="white"/>
<path d="M28.9344 24.4326L30.478 23.1425L24.9798 18.5468C24.0111 17.7375 23.8646 16.2739 24.652 15.2786C25.4394 14.2824 26.8631 14.1318 27.8318 14.9412L35.4867 21.3397C36.0147 21.7813 36.3211 22.4431 36.3211 23.1425C36.3211 23.8419 36.0147 24.5041 35.4867 24.9453L31.7863 28.0383C31.3671 28.3885 30.8628 28.5589 30.3618 28.5589C29.7047 28.5589 29.0531 28.2661 28.6066 27.7013C27.8192 26.7055 27.9661 25.2424 28.9344 24.4326Z" fill="#7B4AE2"/>
</svg>
